<svg xmlns="http://www.w3.org/2000/svg" xmlns:xlink="http://www.w3.org/1999/xlink" version="1.1" x="0px" y="0px" viewBox="0 0 64 64" enable-background="new 0 0 64 64" xml:space="preserve"><g display="none"><rect x="-10.495" y="-10.779" display="inline" fill="#000000" width="787" height="375.042"></rect></g><g display="none"><circle display="inline" cx="5.814" cy="4.404" r="2.285"></circle><path display="inline" d="M8.365,7.603H3.263C1.464,7.603,0,9.067,0,10.866v6.399c0,0.655,0.531,1.187,1.187,1.187   s1.187-0.531,1.187-1.187v-5.739h0.712v5.411c0,0.003-0.001,0.005-0.001,0.008v12.098c0,0.655,0.531,1.187,1.187,1.187   s1.187-0.531,1.187-1.187v-9.733H6.17v9.733c0,0.655,0.531,1.187,1.187,1.187s1.187-0.531,1.187-1.187v-9.733v-2.365v-5.418h0.712   v5.739c0,0.655,0.531,1.187,1.187,1.187s1.187-0.531,1.187-1.187v-6.399C11.628,9.067,10.164,7.603,8.365,7.603z"></path><circle display="inline" fill="#000000" cx="18.9" cy="4.404" r="2.285"></circle><path display="inline" fill="#000000" d="M21.451,7.603h-5.102c-1.799,0-3.263,1.464-3.263,3.263v6.399   c0,0.655,0.531,1.187,1.187,1.187s1.187-0.531,1.187-1.187v-5.739h0.712v5.411c0,0.003-0.001,0.005-0.001,0.008v12.098   c0,0.655,0.531,1.187,1.187,1.187c0.655,0,1.187-0.531,1.187-1.187v-9.733h0.712v9.733c0,0.655,0.531,1.187,1.187,1.187   c0.655,0,1.187-0.531,1.187-1.187v-9.733v-2.365v-5.418h0.712v5.739c0,0.655,0.531,1.187,1.187,1.187   c0.655,0,1.187-0.531,1.187-1.187v-6.399C24.715,9.067,23.25,7.603,21.451,7.603z"></path><circle display="inline" fill="#000000" cx="31.996" cy="4.404" r="2.285"></circle><path display="inline" fill="#000000" d="M34.547,7.603h-5.102c-1.799,0-3.263,1.464-3.263,3.263v6.399   c0,0.655,0.531,1.187,1.187,1.187c0.655,0,1.187-0.531,1.187-1.187v-5.739h0.712v5.411c0,0.003-0.001,0.005-0.001,0.008v12.098   c0,0.655,0.531,1.187,1.187,1.187s1.187-0.531,1.187-1.187v-9.733h0.712v9.733c0,0.655,0.531,1.187,1.187,1.187   s1.187-0.531,1.187-1.187v-9.733v-2.365v-5.418h0.712v5.739c0,0.655,0.531,1.187,1.187,1.187s1.187-0.531,1.187-1.187v-6.399   C37.81,9.067,36.346,7.603,34.547,7.603z"></path><circle display="inline" fill="#000000" cx="45.091" cy="4.404" r="2.285"></circle><path display="inline" fill="#000000" d="M47.642,7.603H42.54c-1.799,0-3.263,1.464-3.263,3.263v6.399   c0,0.655,0.531,1.187,1.187,1.187c0.655,0,1.187-0.531,1.187-1.187v-5.739h0.712v5.411c0,0.003-0.001,0.005-0.001,0.008v12.098   c0,0.655,0.531,1.187,1.187,1.187s1.187-0.531,1.187-1.187v-9.733h0.712v9.733c0,0.655,0.531,1.187,1.187,1.187   s1.187-0.531,1.187-1.187v-9.733v-2.365v-5.418h0.712v5.739c0,0.655,0.531,1.187,1.187,1.187s1.187-0.531,1.187-1.187v-6.399   C50.905,9.067,49.441,7.603,47.642,7.603z"></path><circle display="inline" fill="#000000" cx="58.186" cy="4.404" r="2.285"></circle><path display="inline" fill="#000000" d="M60.737,7.603h-5.102c-1.799,0-3.263,1.464-3.263,3.263v6.399   c0,0.655,0.531,1.187,1.187,1.187s1.187-0.531,1.187-1.187v-5.739h0.712v5.411c0,0.003-0.001,0.005-0.001,0.008v12.098   c0,0.655,0.531,1.187,1.187,1.187s1.187-0.531,1.187-1.187v-9.733h0.712v9.733c0,0.655,0.531,1.187,1.187,1.187   c0.655,0,1.187-0.531,1.187-1.187v-9.733v-2.365v-5.418h0.712v5.739c0,0.655,0.531,1.187,1.187,1.187   c0.655,0,1.187-0.531,1.187-1.187v-6.399C64,9.067,62.536,7.603,60.737,7.603z"></path><circle display="inline" fill="#000000" cx="5.814" cy="36.057" r="2.285"></circle><path display="inline" fill="#000000" d="M8.365,39.255H3.263C1.464,39.255,0,40.719,0,42.518v6.399   c0,0.655,0.531,1.187,1.187,1.187s1.187-0.531,1.187-1.187v-5.739h0.712v5.411c0,0.003-0.001,0.005-0.001,0.008v12.098   c0,0.655,0.531,1.187,1.187,1.187s1.187-0.531,1.187-1.187v-9.733H6.17v9.733c0,0.655,0.531,1.187,1.187,1.187   s1.187-0.531,1.187-1.187v-9.733v-2.365v-5.418h0.712v5.739c0,0.655,0.531,1.187,1.187,1.187s1.187-0.531,1.187-1.187v-6.399   C11.628,40.719,10.164,39.255,8.365,39.255z"></path><circle display="inline" fill="#000000" cx="18.9" cy="36.057" r="2.285"></circle><path display="inline" fill="#000000" d="M21.451,39.255h-5.102c-1.799,0-3.263,1.464-3.263,3.263v6.399   c0,0.655,0.531,1.187,1.187,1.187s1.187-0.531,1.187-1.187v-5.739h0.712v5.411c0,0.003-0.001,0.005-0.001,0.008v12.098   c0,0.655,0.531,1.187,1.187,1.187c0.655,0,1.187-0.531,1.187-1.187v-9.733h0.712v9.733c0,0.655,0.531,1.187,1.187,1.187   c0.655,0,1.187-0.531,1.187-1.187v-9.733v-2.365v-5.418h0.712v5.739c0,0.655,0.531,1.187,1.187,1.187   c0.655,0,1.187-0.531,1.187-1.187v-6.399C24.715,40.719,23.25,39.255,21.451,39.255z"></path><circle display="inline" fill="#000000" cx="31.996" cy="36.057" r="2.285"></circle><path display="inline" fill="#000000" d="M34.547,39.255h-5.102c-1.799,0-3.263,1.464-3.263,3.263v6.399   c0,0.655,0.531,1.187,1.187,1.187c0.655,0,1.187-0.531,1.187-1.187v-5.739h0.712v5.411c0,0.003-0.001,0.005-0.001,0.008v12.098   c0,0.655,0.531,1.187,1.187,1.187s1.187-0.531,1.187-1.187v-9.733h0.712v9.733c0,0.655,0.531,1.187,1.187,1.187   s1.187-0.531,1.187-1.187v-9.733v-2.365v-5.418h0.712v5.739c0,0.655,0.531,1.187,1.187,1.187s1.187-0.531,1.187-1.187v-6.399   C37.81,40.719,36.346,39.255,34.547,39.255z"></path><circle display="inline" fill="#000000" cx="45.091" cy="36.057" r="2.285"></circle><path display="inline" fill="#000000" d="M47.642,39.255H42.54c-1.799,0-3.263,1.464-3.263,3.263v6.399   c0,0.655,0.531,1.187,1.187,1.187c0.655,0,1.187-0.531,1.187-1.187v-5.739h0.712v5.411c0,0.003-0.001,0.005-0.001,0.008v12.098   c0,0.655,0.531,1.187,1.187,1.187s1.187-0.531,1.187-1.187v-9.733h0.712v9.733c0,0.655,0.531,1.187,1.187,1.187   s1.187-0.531,1.187-1.187v-9.733v-2.365v-5.418h0.712v5.739c0,0.655,0.531,1.187,1.187,1.187s1.187-0.531,1.187-1.187v-6.399   C50.905,40.719,49.441,39.255,47.642,39.255z"></path><circle display="inline" fill="#000000" cx="58.186" cy="36.057" r="2.285"></circle><path display="inline" fill="#000000" d="M60.737,39.255h-5.102c-1.799,0-3.263,1.464-3.263,3.263v6.399   c0,0.655,0.531,1.187,1.187,1.187s1.187-0.531,1.187-1.187v-5.739h0.712v5.411c0,0.003-0.001,0.005-0.001,0.008v12.098   c0,0.655,0.531,1.187,1.187,1.187s1.187-0.531,1.187-1.187v-9.733h0.712v9.733c0,0.655,0.531,1.187,1.187,1.187   c0.655,0,1.187-0.531,1.187-1.187v-9.733v-2.365v-5.418h0.712v5.739c0,0.655,0.531,1.187,1.187,1.187   c0.655,0,1.187-0.531,1.187-1.187v-6.399C64,40.719,62.536,39.255,60.737,39.255z"></path></g><g display="none"><circle display="inline" cx="5.814" cy="4.404" r="2.285"></circle><path display="inline" d="M8.365,7.603H3.263C1.464,7.603,0,9.067,0,10.866v6.399c0,0.655,0.531,1.187,1.187,1.187   s1.187-0.531,1.187-1.187v-5.739h0.712v5.411c0,0.003-0.001,0.005-0.001,0.008v12.098c0,0.655,0.531,1.187,1.187,1.187   s1.187-0.531,1.187-1.187v-9.733H6.17v9.733c0,0.655,0.531,1.187,1.187,1.187s1.187-0.531,1.187-1.187v-9.733v-2.365v-5.418h0.712   v5.739c0,0.655,0.531,1.187,1.187,1.187s1.187-0.531,1.187-1.187v-6.399C11.628,9.067,10.164,7.603,8.365,7.603z"></path><circle display="inline" fill="#000000" cx="18.9" cy="4.404" r="2.285"></circle><path display="inline" fill="#000000" d="M21.451,7.603h-5.102c-1.799,0-3.263,1.464-3.263,3.263v6.399   c0,0.655,0.531,1.187,1.187,1.187s1.187-0.531,1.187-1.187v-5.739h0.712v5.411c0,0.003-0.001,0.005-0.001,0.008v12.098   c0,0.655,0.531,1.187,1.187,1.187c0.655,0,1.187-0.531,1.187-1.187v-9.733h0.712v9.733c0,0.655,0.531,1.187,1.187,1.187   c0.655,0,1.187-0.531,1.187-1.187v-9.733v-2.365v-5.418h0.712v5.739c0,0.655,0.531,1.187,1.187,1.187   c0.655,0,1.187-0.531,1.187-1.187v-6.399C24.715,9.067,23.25,7.603,21.451,7.603z"></path><circle display="inline" fill="#000000" cx="31.996" cy="4.404" r="2.285"></circle><path display="inline" fill="#000000" d="M34.547,7.603h-5.102c-1.799,0-3.263,1.464-3.263,3.263v6.399   c0,0.655,0.531,1.187,1.187,1.187c0.655,0,1.187-0.531,1.187-1.187v-5.739h0.712v5.411c0,0.003-0.001,0.005-0.001,0.008v12.098   c0,0.655,0.531,1.187,1.187,1.187s1.187-0.531,1.187-1.187v-9.733h0.712v9.733c0,0.655,0.531,1.187,1.187,1.187   s1.187-0.531,1.187-1.187v-9.733v-2.365v-5.418h0.712v5.739c0,0.655,0.531,1.187,1.187,1.187s1.187-0.531,1.187-1.187v-6.399   C37.81,9.067,36.346,7.603,34.547,7.603z"></path><circle display="inline" fill="#000000" cx="45.091" cy="4.404" r="2.285"></circle><path display="inline" fill="#000000" d="M47.642,7.603H42.54c-1.799,0-3.263,1.464-3.263,3.263v6.399   c0,0.655,0.531,1.187,1.187,1.187c0.655,0,1.187-0.531,1.187-1.187v-5.739h0.712v5.411c0,0.003-0.001,0.005-0.001,0.008v12.098   c0,0.655,0.531,1.187,1.187,1.187s1.187-0.531,1.187-1.187v-9.733h0.712v9.733c0,0.655,0.531,1.187,1.187,1.187   s1.187-0.531,1.187-1.187v-9.733v-2.365v-5.418h0.712v5.739c0,0.655,0.531,1.187,1.187,1.187s1.187-0.531,1.187-1.187v-6.399   C50.905,9.067,49.441,7.603,47.642,7.603z"></path><circle display="inline" fill="#000000" cx="58.186" cy="4.404" r="2.285"></circle><path display="inline" fill="#000000" d="M60.737,7.603h-5.102c-1.799,0-3.263,1.464-3.263,3.263v6.399   c0,0.655,0.531,1.187,1.187,1.187s1.187-0.531,1.187-1.187v-5.739h0.712v5.411c0,0.003-0.001,0.005-0.001,0.008v12.098   c0,0.655,0.531,1.187,1.187,1.187s1.187-0.531,1.187-1.187v-9.733h0.712v9.733c0,0.655,0.531,1.187,1.187,1.187   c0.655,0,1.187-0.531,1.187-1.187v-9.733v-2.365v-5.418h0.712v5.739c0,0.655,0.531,1.187,1.187,1.187   c0.655,0,1.187-0.531,1.187-1.187v-6.399C64,9.067,62.536,7.603,60.737,7.603z"></path><circle display="inline" fill="#000000" cx="5.814" cy="36.057" r="2.285"></circle><path display="inline" fill="#000000" d="M8.365,39.255H3.263C1.464,39.255,0,40.719,0,42.518v6.399   c0,0.655,0.531,1.187,1.187,1.187s1.187-0.531,1.187-1.187v-5.739h0.712v5.411c0,0.003-0.001,0.005-0.001,0.008v12.098   c0,0.655,0.531,1.187,1.187,1.187s1.187-0.531,1.187-1.187v-9.733H6.17v9.733c0,0.655,0.531,1.187,1.187,1.187   s1.187-0.531,1.187-1.187v-9.733v-2.365v-5.418h0.712v5.739c0,0.655,0.531,1.187,1.187,1.187s1.187-0.531,1.187-1.187v-6.399   C11.628,40.719,10.164,39.255,8.365,39.255z"></path><circle display="inline" fill="#000000" cx="18.9" cy="36.057" r="2.285"></circle><path display="inline" fill="#000000" d="M21.451,39.255h-5.102c-1.799,0-3.263,1.464-3.263,3.263v6.399   c0,0.655,0.531,1.187,1.187,1.187s1.187-0.531,1.187-1.187v-5.739h0.712v5.411c0,0.003-0.001,0.005-0.001,0.008v12.098   c0,0.655,0.531,1.187,1.187,1.187c0.655,0,1.187-0.531,1.187-1.187v-9.733h0.712v9.733c0,0.655,0.531,1.187,1.187,1.187   c0.655,0,1.187-0.531,1.187-1.187v-9.733v-2.365v-5.418h0.712v5.739c0,0.655,0.531,1.187,1.187,1.187   c0.655,0,1.187-0.531,1.187-1.187v-6.399C24.715,40.719,23.25,39.255,21.451,39.255z"></path><circle display="inline" fill="#000000" cx="31.996" cy="36.057" r="2.285"></circle><path display="inline" fill="#000000" d="M34.547,39.255h-5.102c-1.799,0-3.263,1.464-3.263,3.263v6.399   c0,0.655,0.531,1.187,1.187,1.187c0.655,0,1.187-0.531,1.187-1.187v-5.739h0.712v5.411c0,0.003-0.001,0.005-0.001,0.008v12.098   c0,0.655,0.531,1.187,1.187,1.187s1.187-0.531,1.187-1.187v-9.733h0.712v9.733c0,0.655,0.531,1.187,1.187,1.187   s1.187-0.531,1.187-1.187v-9.733v-2.365v-5.418h0.712v5.739c0,0.655,0.531,1.187,1.187,1.187s1.187-0.531,1.187-1.187v-6.399   C37.81,40.719,36.346,39.255,34.547,39.255z"></path><circle display="inline" fill="#000000" cx="45.091" cy="36.057" r="2.285"></circle><path display="inline" fill="#000000" d="M47.642,39.255H42.54c-1.799,0-3.263,1.464-3.263,3.263v6.399   c0,0.655,0.531,1.187,1.187,1.187c0.655,0,1.187-0.531,1.187-1.187v-5.739h0.712v5.411c0,0.003-0.001,0.005-0.001,0.008v12.098   c0,0.655,0.531,1.187,1.187,1.187s1.187-0.531,1.187-1.187v-9.733h0.712v9.733c0,0.655,0.531,1.187,1.187,1.187   s1.187-0.531,1.187-1.187v-9.733v-2.365v-5.418h0.712v5.739c0,0.655,0.531,1.187,1.187,1.187s1.187-0.531,1.187-1.187v-6.399   C50.905,40.719,49.441,39.255,47.642,39.255z"></path><circle display="inline" fill="#000000" cx="58.186" cy="36.057" r="2.285"></circle><path display="inline" fill="#000000" d="M60.737,39.255h-5.102c-1.799,0-3.263,1.464-3.263,3.263v6.399   c0,0.655,0.531,1.187,1.187,1.187s1.187-0.531,1.187-1.187v-5.739h0.712v5.411c0,0.003-0.001,0.005-0.001,0.008v12.098   c0,0.655,0.531,1.187,1.187,1.187s1.187-0.531,1.187-1.187v-9.733h0.712v9.733c0,0.655,0.531,1.187,1.187,1.187   c0.655,0,1.187-0.531,1.187-1.187v-9.733v-2.365v-5.418h0.712v5.739c0,0.655,0.531,1.187,1.187,1.187   c0.655,0,1.187-0.531,1.187-1.187v-6.399C64,40.719,62.536,39.255,60.737,39.255z"></path></g><g display="none"><polygon display="inline" fill="none" stroke="#000000" stroke-width="2" stroke-miterlimit="10" points="54.776,43.017    54.776,29.94 36.988,29.94 36.988,43.017 29.884,43.017 45.882,62.428 61.88,43.017  "></polygon><polygon display="inline" fill="none" stroke="#000000" stroke-width="2" stroke-miterlimit="10" points="9.224,20.983    9.224,34.06 27.012,34.06 27.012,20.983 34.116,20.983 18.118,1.572 2.12,20.983  "></polygon></g><g display="none"><polygon display="inline" fill="#000000" stroke="#000000" stroke-width="2" stroke-miterlimit="10" points="54.776,43.017    54.776,29.94 36.988,29.94 36.988,43.017 29.884,43.017 45.882,62.428 61.88,43.017  "></polygon><polygon display="inline" fill="#000000" stroke="#000000" stroke-width="2" stroke-miterlimit="10" points="9.224,20.983    9.224,34.06 27.012,34.06 27.012,20.983 34.116,20.983 18.118,1.572 2.12,20.983  "></polygon></g><g display="none"><g display="inline"><polygon fill="#000000" points="54.776,43.017 54.776,29.94 36.988,29.94 36.988,43.017 29.884,43.017 45.882,62.428     61.88,43.017   "></polygon><path d="M45.882,64L27.764,42.017h8.224V28.94h19.788v13.077H64L45.882,64z M32.004,44.017l13.878,16.839L59.76,44.017h-5.984    V30.94H37.987v13.077H32.004z"></path></g><g display="inline"><polygon fill="#000000" points="9.224,20.983 9.224,34.06 27.012,34.06 27.012,20.983 34.116,20.983 18.118,1.572 2.12,20.983       "></polygon><path d="M28.012,35.06H8.224V21.983H0L18.118,0l18.118,21.983h-8.224V35.06z M10.224,33.06h15.788V19.983h5.984L18.118,3.145    L4.24,19.983h5.984V33.06z"></path></g></g><g><circle cx="5.814" cy="4.404" r="2.285"></circle><path d="M1.187,18.451c0.655,0,1.187-0.531,1.187-1.187v-5.739h0.712v5.411c0,0.003-0.001,0.005-0.001,0.008v12.098   c0,0.655,0.531,1.187,1.187,1.187s1.187-0.531,1.187-1.187v-9.733H6.17v9.733c0,0.655,0.531,1.187,1.187,1.187   s1.187-0.531,1.187-1.187v-9.733v-2.365v-5.418h0.712v5.739c0,0.655,0.531,1.187,1.187,1.187c0.655,0,1.187-0.531,1.187-1.187   v-6.399c0-1.799-1.464-3.263-3.263-3.263H3.263C1.464,7.603,0,9.067,0,10.866v6.399C0,17.92,0.531,18.451,1.187,18.451z"></path><circle cx="18.9" cy="4.404" r="2.285"></circle><path d="M14.273,18.451c0.655,0,1.187-0.531,1.187-1.187v-5.739h0.712v5.411c0,0.003-0.001,0.005-0.001,0.008v12.098   c0,0.655,0.531,1.187,1.187,1.187c0.655,0,1.187-0.531,1.187-1.187v-9.733h0.712v9.733c0,0.655,0.531,1.187,1.187,1.187   s1.187-0.531,1.187-1.187v-9.733v-2.365v-5.418h0.712v5.739c0,0.655,0.531,1.187,1.187,1.187c0.655,0,1.187-0.531,1.187-1.187   v-6.399c0-1.799-1.464-3.263-3.263-3.263h-5.102c-1.799,0-3.263,1.464-3.263,3.263v6.399C13.086,17.92,13.618,18.451,14.273,18.451   z"></path><circle cx="31.996" cy="4.404" r="2.285"></circle><path d="M27.368,18.451c0.655,0,1.187-0.531,1.187-1.187v-5.739h0.712v5.411c0,0.003-0.001,0.005-0.001,0.008v12.098   c0,0.655,0.531,1.187,1.187,1.187s1.187-0.531,1.187-1.187v-9.733h0.712v9.733c0,0.655,0.531,1.187,1.187,1.187   s1.187-0.531,1.187-1.187v-9.733v-2.365v-5.418h0.712v5.739c0,0.655,0.531,1.187,1.187,1.187c0.655,0,1.187-0.531,1.187-1.187   v-6.399c0-1.799-1.464-3.263-3.263-3.263h-5.102c-1.799,0-3.263,1.464-3.263,3.263v6.399C26.181,17.92,26.713,18.451,27.368,18.451   z"></path><circle cx="45.091" cy="4.404" r="2.285"></circle><path d="M40.463,18.451c0.655,0,1.187-0.531,1.187-1.187v-5.739h0.712v5.411c0,0.003-0.001,0.005-0.001,0.008v12.098   c0,0.655,0.531,1.187,1.187,1.187s1.187-0.531,1.187-1.187v-9.733h0.712v9.733c0,0.655,0.531,1.187,1.187,1.187   c0.655,0,1.187-0.531,1.187-1.187v-9.733v-2.365v-5.418h0.712v5.739c0,0.655,0.531,1.187,1.187,1.187s1.187-0.531,1.187-1.187   v-6.399c0-1.799-1.464-3.263-3.263-3.263H42.54c-1.799,0-3.263,1.464-3.263,3.263v6.399C39.277,17.92,39.808,18.451,40.463,18.451z   "></path><circle cx="58.186" cy="4.404" r="2.285"></circle><path d="M60.737,7.603h-5.102c-1.799,0-3.263,1.464-3.263,3.263v6.399c0,0.655,0.531,1.187,1.187,1.187   c0.655,0,1.187-0.531,1.187-1.187v-5.739h0.712v5.411c0,0.003-0.001,0.005-0.001,0.008v12.098c0,0.655,0.531,1.187,1.187,1.187   s1.187-0.531,1.187-1.187v-9.733h0.712v9.733c0,0.655,0.531,1.187,1.187,1.187c0.655,0,1.187-0.531,1.187-1.187v-9.733v-2.365   v-5.418h0.712v5.739c0,0.655,0.531,1.187,1.187,1.187S64,17.92,64,17.265v-6.399C64,9.067,62.536,7.603,60.737,7.603z"></path><circle cx="5.814" cy="36.057" r="2.285"></circle><path d="M1.187,50.104c0.655,0,1.187-0.531,1.187-1.187v-5.739h0.712v5.411c0,0.003-0.001,0.005-0.001,0.008v12.098   c0,0.655,0.531,1.187,1.187,1.187s1.187-0.531,1.187-1.187v-9.733H6.17v9.733c0,0.655,0.531,1.187,1.187,1.187   s1.187-0.531,1.187-1.187v-9.733v-2.365v-5.418h0.712v5.739c0,0.655,0.531,1.187,1.187,1.187c0.655,0,1.187-0.531,1.187-1.187   v-6.399c0-1.799-1.464-3.263-3.263-3.263H3.263C1.464,39.255,0,40.719,0,42.518v6.399C0,49.572,0.531,50.104,1.187,50.104z"></path><circle cx="18.9" cy="36.057" r="2.285"></circle><path d="M14.273,50.104c0.655,0,1.187-0.531,1.187-1.187v-5.739h0.712v5.411c0,0.003-0.001,0.005-0.001,0.008v12.098   c0,0.655,0.531,1.187,1.187,1.187c0.655,0,1.187-0.531,1.187-1.187v-9.733h0.712v9.733c0,0.655,0.531,1.187,1.187,1.187   s1.187-0.531,1.187-1.187v-9.733v-2.365v-5.418h0.712v5.739c0,0.655,0.531,1.187,1.187,1.187c0.655,0,1.187-0.531,1.187-1.187   v-6.399c0-1.799-1.464-3.263-3.263-3.263h-5.102c-1.799,0-3.263,1.464-3.263,3.263v6.399   C13.086,49.572,13.618,50.104,14.273,50.104z"></path><circle cx="31.996" cy="36.057" r="2.285"></circle><path d="M27.368,50.104c0.655,0,1.187-0.531,1.187-1.187v-5.739h0.712v5.411c0,0.003-0.001,0.005-0.001,0.008v12.098   c0,0.655,0.531,1.187,1.187,1.187s1.187-0.531,1.187-1.187v-9.733h0.712v9.733c0,0.655,0.531,1.187,1.187,1.187   s1.187-0.531,1.187-1.187v-9.733v-2.365v-5.418h0.712v5.739c0,0.655,0.531,1.187,1.187,1.187c0.655,0,1.187-0.531,1.187-1.187   v-6.399c0-1.799-1.464-3.263-3.263-3.263h-5.102c-1.799,0-3.263,1.464-3.263,3.263v6.399   C26.181,49.572,26.713,50.104,27.368,50.104z"></path><circle cx="45.091" cy="36.057" r="2.285"></circle><path d="M40.463,50.104c0.655,0,1.187-0.531,1.187-1.187v-5.739h0.712v5.411c0,0.003-0.001,0.005-0.001,0.008v12.098   c0,0.655,0.531,1.187,1.187,1.187s1.187-0.531,1.187-1.187v-9.733h0.712v9.733c0,0.655,0.531,1.187,1.187,1.187   c0.655,0,1.187-0.531,1.187-1.187v-9.733v-2.365v-5.418h0.712v5.739c0,0.655,0.531,1.187,1.187,1.187s1.187-0.531,1.187-1.187   v-6.399c0-1.799-1.464-3.263-3.263-3.263H42.54c-1.799,0-3.263,1.464-3.263,3.263v6.399C39.277,49.572,39.808,50.104,40.463,50.104   z"></path><circle cx="58.186" cy="36.057" r="2.285"></circle><path d="M60.737,39.255h-5.102c-1.799,0-3.263,1.464-3.263,3.263v6.399c0,0.655,0.531,1.187,1.187,1.187   c0.655,0,1.187-0.531,1.187-1.187v-5.739h0.712v5.411c0,0.003-0.001,0.005-0.001,0.008v12.098c0,0.655,0.531,1.187,1.187,1.187   s1.187-0.531,1.187-1.187v-9.733h0.712v9.733c0,0.655,0.531,1.187,1.187,1.187c0.655,0,1.187-0.531,1.187-1.187v-9.733v-2.365   v-5.418h0.712v5.739c0,0.655,0.531,1.187,1.187,1.187S64,49.572,64,48.917v-6.399C64,40.719,62.536,39.255,60.737,39.255z"></path></g></svg>