<svg xmlns="http://www.w3.org/2000/svg" xmlns:xlink="http://www.w3.org/1999/xlink" version="1.1" x="0px" y="0px" viewBox="0 0 100 100" enable-background="new 0 0 100 100" xml:space="preserve"><g><path d="M50.373,56.878h-0.004c-3.939,0.002-7.142,3.209-7.14,7.149c0.001,2.494,1.333,4.792,3.421,6.073l0.006,10.667l7.453-0.003   l-0.005-10.667c2.087-1.283,3.416-3.583,3.414-6.077C57.515,60.082,54.31,56.878,50.373,56.878z M51.52,67.115l-1.145,0.425   l-1.146-0.424c-1.297-0.481-2.17-1.723-2.171-3.091c-0.001-1.827,1.485-3.315,3.313-3.316l0.002-1.915v1.915   c1.826,0,3.313,1.486,3.314,3.313C53.688,65.389,52.817,66.632,51.52,67.115z"></path><path d="M84.792,49.966c-0.003-5.463-4.449-9.907-9.917-9.907h-0.449l-0.014-9.872C74.405,16.299,63.101,5,49.2,5   C35.305,5.007,24.007,16.317,24.013,30.214l0.014,9.929C19.069,40.686,15.199,44.9,15.201,50l0.007,35.093   C15.211,90.555,19.657,95,25.12,95h0.006l49.767-0.025c5.466-0.003,9.91-4.452,9.907-9.916L84.792,49.966z M49.213,8.83   c11.777,0,21.364,9.581,21.37,21.361l0.016,11.226h-4.752l-0.016-11.226c-0.005-9.158-7.459-16.609-16.617-16.609h-0.009   c-4.432,0.002-8.603,1.735-11.743,4.878c-3.141,3.143-4.869,7.315-4.867,11.75l0.016,11.207l-4.752,0.035L27.843,30.21   C27.837,18.427,37.419,8.836,49.213,8.83z M62.001,30.195l0.014,9.87l-25.576,0.013l-0.014-9.872   c-0.002-3.409,1.329-6.62,3.746-9.04c2.417-2.42,5.626-3.753,9.036-3.755l0.007-1.915v1.915   C56.261,17.411,61.997,23.145,62.001,30.195z M74.89,91.145L25.123,91.17l-0.003,1.915V91.17c-3.352,0-6.08-2.727-6.082-6.078   l-0.008-35.093c-0.001-3.354,2.726-6.084,6.079-6.085l46.515-0.001V43.89l3.255-0.001c3.352,0,6.08,2.727,6.082,6.078l0.007,35.093   C80.971,88.413,78.244,91.143,74.89,91.145z"></path></g></svg>