<svg xmlns="http://www.w3.org/2000/svg" xmlns:xlink="http://www.w3.org/1999/xlink" version="1.1" x="0px" y="0px" viewBox="0 0 50.4 50.4" enable-background="new 0 0 50.4 50.4" xml:space="preserve"><g><path d="M40.665,16.849h-8.216v5.887h1.578v-0.523c0,0,0-0.752,0.39-1.019c0.2-0.136,0.816-0.159,1.467,0.772   c2.01,2.881,4.032,8.521,3.095,11.189c-0.472,1.343-2.056,0.703-4.951-1.144V24.04h-4.458v7.971   c-2.896,1.847-4.479,2.486-4.951,1.144c-0.938-2.668,1.086-8.308,3.096-11.189c0.649-0.931,1.266-0.908,1.466-0.772   c0.39,0.267,0.39,1.019,0.39,1.019v0.523h1.576v-5.887h-8.213c-5.92,0-9.667,4.957-9.667,10.015v20.101   c-0.013,4.581,5.958,4.581,5.958,0V27.35h1.873L21.104,50.4h21.391l0.008-23.051h1.872v19.615c0,4.581,5.971,4.581,5.958,0V26.864   C50.332,21.806,46.585,16.849,40.665,16.849z"></path><path d="M31.798,1.379c-3.781,0-6.847,3.066-6.847,6.847c0,0.536,0.089,1.047,0.21,1.546H16.27   c0.394-0.587,0.625-1.293,0.625-2.052c0-2.039-1.659-3.699-3.698-3.699c-2.039,0-3.698,1.66-3.698,3.699   c0,0.759,0.231,1.465,0.625,2.052H8.085V4.259H5.393v5.514H1.958V7.305H0v6.848h1.958v-2.684h3.435v2.059   c-1.906,0.583-3.305,2.337-3.305,4.431V50.4h9.303V17.959c0-2.094-1.399-3.849-3.305-4.431v-2.059H25.81   c1.059,1.95,3.017,3.316,5.335,3.538v-3.734h-5.437c-0.082-0.154-0.193-0.387-0.298-0.683c-0.098-0.275-0.152-0.483-0.182-0.622   h7.221v5.039c3.473-0.333,6.195-3.223,6.195-6.781C38.645,4.445,35.58,1.379,31.798,1.379z M9.695,17.959v30.745H3.783V17.959   c0-1.63,1.327-2.956,2.957-2.956C8.369,15.003,9.695,16.33,9.695,17.959z M13.196,9.723c-1.104,0-2.002-0.898-2.002-2.002   c0-1.104,0.898-2.002,2.002-2.002c1.104,0,2.003,0.898,2.003,2.002C15.199,8.825,14.3,9.723,13.196,9.723z"></path></g></svg>