<svg xmlns="http://www.w3.org/2000/svg" xmlns:xlink="http://www.w3.org/1999/xlink" version="1.1" x="0px" y="0px" viewBox="0 0 100 100" enable-background="new 0 0 100 100" xml:space="preserve"><g display="none"><rect x="-1013" y="-21" display="inline" fill="#000000" width="1280" height="532"></rect></g><g><path d="M19.805,68.851c0,3.85,3.15,7,7,7c3.066,0,5.682-2,6.623-4.758c2.09,1.492,4.507,2.545,7.127,3.028v2.528h-1.417   c-7.306,0-13.25,5.944-13.25,13.25c0,0.372,0.024,0.738,0.055,1.103l0.096,1.147h44.199l0.096-1.147   c0.03-0.365,0.055-0.731,0.055-1.103c0-7.306-5.944-13.25-13.25-13.25h-2.083v-2.424c2.876-0.417,5.529-1.512,7.795-3.129   c0.942,2.757,3.557,4.756,6.622,4.756h0c3.85,0,7-3.15,7-7v-7.557c1.798-1.77,2.916-4.227,2.916-6.943s-1.119-5.173-2.916-6.943   v-17.08c3.862-2.834,6.436-7.32,6.641-12.428h-3.202c1.016-2.623,1.597-5.523,1.597-8.58V7.851h-45.25   c-2.739,0-5.711,2.102-6.807,5h-4.03c-1.357,0-2.715,0.344-3.831,1.115c-1.185,0.819-1.785,1.785-1.785,2.885v30.556   c-1.798,1.77-2.917,4.228-2.917,6.944s1.119,5.174,2.917,6.944V68.851z M57.138,79.149c5.844,0,10.614,4.688,10.747,10.5H28.391   c0.133-5.813,4.903-10.5,10.747-10.5h1.417v0.083c0,3.998,3.252,7.25,7.25,7.25s7.25-3.252,7.25-7.25v-0.083H57.138z    M52.555,79.232c0,2.619-2.131,4.75-4.75,4.75s-4.75-2.131-4.75-4.75v-4.839c0.252,0.01,0.499,0.038,0.753,0.038h8.67   c0.026,0,0.051-0.004,0.077-0.004V79.232z M52.478,71.931h-8.67c-8.503,0-15.42-6.913-15.42-15.41V35.492   c2.923,4.288,7.835,7.111,13.417,7.111c7.547,0,13.878-5.153,15.701-12.129c2.651,1.884,5.882,3.005,9.383,3.005   c0.338,0,0.668-0.029,1-0.049v23.092C67.888,65.018,60.975,71.931,52.478,71.931z M76.888,54.351c0,3.571-2.596,6.548-6,7.142   V47.209C74.292,47.803,76.888,50.78,76.888,54.351z M19.388,54.351c0-3.571,2.596-6.548,6-7.142v14.284   C21.983,60.899,19.388,57.923,19.388,54.351z"></path><path d="M44.703,51.979h1.82c0-3.455-2.811-6.266-6.266-6.266s-6.265,2.811-6.265,6.266h1.82c0-2.451,1.994-4.444,4.444-4.444   C42.709,47.535,44.703,49.529,44.703,51.979z"></path><path d="M56.018,45.714c-3.455,0-6.265,2.811-6.265,6.266h1.82c0-2.451,1.994-4.444,4.444-4.444c2.451,0,4.445,1.994,4.445,4.444   h1.82C62.283,48.524,59.473,45.714,56.018,45.714z"></path><path d="M37.512,59.149c0,4.549,4.361,8.25,9.723,8.25h1.805c5.361,0,9.724-3.701,9.724-8.25v-3.25H37.512V59.149z M39.512,57.899   h7.517v3.75h6.044v-3.75h3.69v1.25c0,3.446-3.465,6.25-7.724,6.25h-1.805c-4.258,0-7.723-2.804-7.723-6.25V57.899z"></path></g></svg>